<svg width="195" height="41" viewBox="0 0 195 41" fill="none" xmlns="http://www.w3.org/2000/svg">
<path d="M51.1857 4.07479C51.1857 5.17972 50.29 6.07544 49.185 6.07544C48.0801 6.07544 47.1844 5.17972 47.1844 4.07479C47.1844 2.96986 48.0801 2.07414 49.185 2.07414C50.29 2.07414 51.1857 2.96986 51.1857 4.07479Z" fill="#3DA7F3"/>
<path fill-rule="evenodd" clip-rule="evenodd" d="M49.185 7.70233C51.1739 7.70233 52.7862 6.09004 52.7862 4.10117C52.7862 2.11229 51.1739 0.5 49.185 0.5C47.1962 0.5 45.5839 2.11229 45.5839 4.10117C45.5839 4.85087 45.813 5.54707 46.205 6.12357L42.783 9.54558L44.1976 10.9602L47.752 7.40592C48.1911 7.59661 48.6757 7.70233 49.185 7.70233ZM49.185 5.59953C48.3575 5.59953 47.6867 4.92868 47.6867 4.10117C47.6867 3.27365 48.3575 2.6028 49.185 2.6028C50.0125 2.6028 50.6834 3.27365 50.6834 4.10117C50.6834 4.92868 50.0125 5.59953 49.185 5.59953Z" fill="#3DA7F3"/>
<path d="M6.36866 4.07479C6.36866 5.17972 5.47294 6.07544 4.36801 6.07544C3.26308 6.07544 2.36736 5.17972 2.36736 4.07479C2.36736 2.96986 3.26308 2.07414 4.36801 2.07414C5.47294 2.07414 6.36866 2.96986 6.36866 4.07479Z" fill="#3DA7F3"/>
<path fill-rule="evenodd" clip-rule="evenodd" d="M7.20313 6.32188C7.68302 5.71006 7.96918 4.93903 7.96918 4.10117C7.96918 2.11229 6.35689 0.5 4.36801 0.5C2.37915 0.5 0.766846 2.11229 0.766846 4.10117C0.766846 6.09004 2.37915 7.70233 4.36801 7.70233C4.78365 7.70233 5.18283 7.63192 5.55428 7.50239L9.01216 10.9602L10.4268 9.54558L7.20313 6.32188ZM4.36801 5.59953C3.5405 5.59953 2.86966 4.92868 2.86966 4.10117C2.86966 3.27365 3.5405 2.6028 4.36801 2.6028C5.19552 2.6028 5.86637 3.27365 5.86637 4.10117C5.86637 4.92868 5.19552 5.59953 4.36801 5.59953Z" fill="#3DA7F3"/>
<path d="M7.18823 26.4683C5.53452 14.4144 8.76799 8.97735 16.9914 4.26108C22.9069 0.86846 28.0697 0.317402 34.397 2.86063C43.5739 6.54924 47.4813 12.3037 46.2008 25.2679C44.9204 38.2321 31.6628 40.8062 25.1941 40.4728C20.4592 40.7396 8.84195 38.5222 7.18823 26.4683Z" fill="#3DA7F3"/>
<path d="M11.5924 19.8196C11.1123 10.2165 19.9951 9.45373 25.597 9.01609C35.8403 8.21582 39.4279 11.0167 40.6018 14.818C42.0023 19.3528 43.0026 29.0226 35.8003 31.4233C28.5979 33.8241 21.1955 32.4237 18.3946 31.4233C15.9939 30.6231 12.0726 29.4227 11.5924 19.8196Z" fill="#F4F4F4"/>
<path fill-rule="evenodd" clip-rule="evenodd" d="M36.9181 9.28104C39.5229 10.4863 40.8925 12.3744 41.5552 14.5202C42.2844 16.8813 42.9173 20.5875 42.4147 24.0616C41.909 27.5571 40.2077 31.0053 36.1142 32.3698C28.6511 34.8575 21.0203 33.4186 18.0661 32.3665C18.0343 32.3559 18.0021 32.3452 17.9695 32.3343C16.7713 31.9362 14.9988 31.3471 13.504 29.5622C11.9718 27.7328 10.837 24.7882 10.591 19.867C10.463 17.3076 10.9568 15.2553 11.929 13.6265C12.8999 11.9997 14.3016 10.8732 15.8604 10.0854C18.9277 8.53533 22.7537 8.23208 25.5167 8.01622C30.7147 7.61012 34.3705 8.10228 36.9181 9.28104ZM36.078 11.0967C33.9774 10.1248 30.7177 9.61663 25.6725 10.0108C22.8336 10.2326 19.4173 10.5295 16.7627 11.871C15.4606 12.529 14.3814 13.4211 13.6469 14.6519C12.9135 15.8806 12.477 17.5249 12.5891 19.767C12.8232 24.4489 13.8891 26.9061 15.0378 28.2777C16.1657 29.6244 17.4749 30.0607 18.6668 30.4578L18.7187 30.4751L18.7287 30.4787C21.3837 31.4269 28.5486 32.7827 35.4815 30.4718C38.5904 29.4355 39.9901 26.8483 40.4347 23.7751C40.8824 20.6804 40.315 17.2843 39.6437 15.1106C39.1324 13.4552 38.1213 12.0422 36.078 11.0967Z" fill="#0062A9"/>
<path d="M24.376 20.4802C24.376 23.3531 22.1367 25.6819 19.3744 25.6819C16.6121 25.6819 14.3728 23.3531 14.3728 20.4802C14.3728 17.6074 16.6121 15.2786 19.3744 15.2786C22.1367 15.2786 24.376 17.6074 24.376 20.4802Z" fill="#093E6E"/>
<path d="M38.7807 20.4802C38.7807 23.3531 36.5414 25.6819 33.7791 25.6819C31.0168 25.6819 28.7775 23.3531 28.7775 20.4802C28.7775 17.6074 31.0168 15.2786 33.7791 15.2786C36.5414 15.2786 38.7807 17.6074 38.7807 20.4802Z" fill="#093E6E"/>
<path d="M22.3754 19.4799C22.3754 20.6953 21.3901 21.6806 20.1747 21.6806C18.9593 21.6806 17.974 20.6953 17.974 19.4799C17.974 18.2645 18.9593 17.2792 20.1747 17.2792C21.3901 17.2792 22.3754 18.2645 22.3754 19.4799Z" fill="#F4F4F4"/>
<path d="M37.1802 19.4799C37.1802 20.6953 36.1949 21.6806 34.9795 21.6806C33.7641 21.6806 32.7788 20.6953 32.7788 19.4799C32.7788 18.2645 33.7641 17.2792 34.9795 17.2792C36.1949 17.2792 37.1802 18.2645 37.1802 19.4799Z" fill="#F4F4F4"/>
<path fill-rule="evenodd" clip-rule="evenodd" d="M24.0885 25.7557C24.4897 25.3759 25.1229 25.3933 25.5027 25.7945C25.6718 25.9732 26.007 26.2023 26.3881 26.2652C26.7088 26.3181 27.1511 26.2729 27.6844 25.7607C28.0829 25.378 28.7161 25.3908 29.0988 25.7893C29.4815 26.1877 29.4687 26.821 29.0703 27.2037C28.0945 28.1408 27.0221 28.3976 26.0623 28.2391C25.163 28.0907 24.4522 27.5951 24.0497 27.1698C23.6699 26.7686 23.6873 26.1355 24.0885 25.7557Z" fill="#093E6E"/>
<path d="M194.833 14.9915L185.87 36.0671H181.158L184.436 28.7943L178.623 14.9915H183.514L186.818 23.9287L190.096 14.9915H194.833Z" fill="#3DA7F3"/>
<path d="M161.983 22.1106C161.983 20.6424 162.257 19.3535 162.803 18.2438C163.366 17.1341 164.126 16.2805 165.082 15.6829C166.038 15.0854 167.105 14.7867 168.283 14.7867C169.222 14.7867 170.076 14.983 170.844 15.3756C171.629 15.7683 172.244 16.2975 172.688 16.9634V10.3308H177.067V29.2809H172.688V27.2323C172.278 27.9152 171.689 28.4615 170.921 28.8712C170.17 29.2809 169.29 29.4858 168.283 29.4858C167.105 29.4858 166.038 29.187 165.082 28.5895C164.126 27.9749 163.366 27.1128 162.803 26.0031C162.257 24.8763 161.983 23.5788 161.983 22.1106ZM172.688 22.1362C172.688 21.0436 172.38 20.1815 171.766 19.5498C171.168 18.9181 170.434 18.6023 169.563 18.6023C168.693 18.6023 167.95 18.9181 167.336 19.5498C166.738 20.1644 166.439 21.018 166.439 22.1106C166.439 23.2032 166.738 24.0739 167.336 24.7227C167.95 25.3543 168.693 25.6702 169.563 25.6702C170.434 25.6702 171.168 25.3543 171.766 24.7227C172.38 24.091 172.688 23.2289 172.688 22.1362Z" fill="#3DA7F3"/>
<path d="M144.602 22.1106C144.602 20.6424 144.875 19.3535 145.421 18.2438C145.984 17.1341 146.744 16.2805 147.7 15.6829C148.656 15.0854 149.723 14.7867 150.901 14.7867C151.84 14.7867 152.694 14.983 153.462 15.3756C154.247 15.7683 154.862 16.2975 155.306 16.9634V10.3308H159.685V29.2809H155.306V27.2323C154.896 27.9152 154.307 28.4615 153.539 28.8712C152.788 29.2809 151.908 29.4858 150.901 29.4858C149.723 29.4858 148.656 29.187 147.7 28.5895C146.744 27.9749 145.984 27.1128 145.421 26.0031C144.875 24.8763 144.602 23.5788 144.602 22.1106ZM155.306 22.1362C155.306 21.0436 154.999 20.1815 154.384 19.5498C153.786 18.9181 153.052 18.6023 152.182 18.6023C151.311 18.6023 150.568 18.9181 149.954 19.5498C149.356 20.1644 149.057 21.018 149.057 22.1106C149.057 23.2032 149.356 24.0739 149.954 24.7227C150.568 25.3543 151.311 25.6702 152.182 25.6702C153.052 25.6702 153.786 25.3543 154.384 24.7227C154.999 24.091 155.306 23.2289 155.306 22.1362Z" fill="#3DA7F3"/>
<path d="M142.33 14.9915V29.2809H137.951V27.3347C137.507 27.9663 136.901 28.4785 136.133 28.8711C135.382 29.2467 134.545 29.4345 133.623 29.4345C132.531 29.4345 131.566 29.1955 130.729 28.7175C129.893 28.2224 129.244 27.5139 128.783 26.592C128.322 25.6701 128.092 24.586 128.092 23.3398V14.9915H132.445V22.7508C132.445 23.7068 132.693 24.4495 133.188 24.9787C133.683 25.5079 134.349 25.7725 135.185 25.7725C136.039 25.7725 136.713 25.5079 137.208 24.9787C137.703 24.4495 137.951 23.7068 137.951 22.7508V14.9915H142.33Z" fill="#3DA7F3"/>
<path d="M122.231 20.0591C123.273 20.281 124.109 20.8017 124.741 21.6212C125.373 22.4236 125.689 23.3455 125.689 24.3869C125.689 25.8892 125.159 27.0843 124.101 27.972C123.059 28.8427 121.6 29.278 119.722 29.278H111.348V11.301H119.44C121.267 11.301 122.692 11.7193 123.717 12.5558C124.758 13.3924 125.279 14.5277 125.279 15.9617C125.279 17.0202 124.997 17.8994 124.434 18.5994C123.887 19.2993 123.153 19.7859 122.231 20.0591ZM115.727 18.5738H118.595C119.312 18.5738 119.858 18.4201 120.234 18.1128C120.627 17.7885 120.823 17.319 120.823 16.7044C120.823 16.0898 120.627 15.6203 120.234 15.2959C119.858 14.9715 119.312 14.8094 118.595 14.8094H115.727V18.5738ZM118.954 25.7441C119.688 25.7441 120.251 25.5819 120.644 25.2575C121.053 24.9161 121.258 24.4295 121.258 23.7979C121.258 23.1662 121.045 22.6711 120.618 22.3126C120.208 21.9541 119.636 21.7748 118.902 21.7748H115.727V25.7441H118.954Z" fill="#3DA7F3"/>
<path d="M109.759 14.9915L100.796 36.0671H96.0845L99.3624 28.7943L93.5493 14.9915H98.4405L101.744 23.9287L105.022 14.9915H109.759Z" fill="#3DA7F3"/>
<path d="M76.9094 22.1077C76.9094 20.6395 77.1826 19.3505 77.7289 18.2408C78.2923 17.1311 79.052 16.2775 80.008 15.68C80.9641 15.0825 82.0311 14.7837 83.2091 14.7837C84.2163 14.7837 85.0955 14.9886 85.8467 15.3983C86.615 15.808 87.204 16.3458 87.6137 17.0116V14.9886H91.9927V29.278H87.6137V27.2549C87.1869 27.9207 86.5894 28.4585 85.8211 28.8682C85.0699 29.278 84.1907 29.4829 83.1835 29.4829C82.0225 29.4829 80.9641 29.1841 80.008 28.5866C79.052 27.972 78.2923 27.1098 77.7289 26.0001C77.1826 24.8734 76.9094 23.5759 76.9094 22.1077ZM87.6137 22.1333C87.6137 21.0406 87.3064 20.1785 86.6918 19.5468C86.0943 18.9152 85.3602 18.5993 84.4895 18.5993C83.6188 18.5993 82.8762 18.9152 82.2616 19.5468C81.664 20.1614 81.3653 21.015 81.3653 22.1077C81.3653 23.2003 81.664 24.071 82.2616 24.7197C82.8762 25.3514 83.6188 25.6672 84.4895 25.6672C85.3602 25.6672 86.0943 25.3514 86.6918 24.7197C87.3064 24.088 87.6137 23.2259 87.6137 22.1333Z" fill="#3DA7F3"/>
<path d="M65.911 11.301C67.806 11.301 69.462 11.6766 70.879 12.4278C72.296 13.179 73.3886 14.2374 74.1569 15.6032C74.9422 16.9519 75.3349 18.514 75.3349 20.2895C75.3349 22.048 74.9422 23.6101 74.1569 24.9759C73.3886 26.3416 72.2875 27.4001 70.8534 28.1513C69.4364 28.9025 67.7889 29.278 65.911 29.278H59.176V11.301H65.911ZM65.6293 25.488C67.2853 25.488 68.5743 25.0356 69.4962 24.1308C70.4181 23.226 70.879 21.9455 70.879 20.2895C70.879 18.6335 70.4181 17.3446 69.4962 16.4227C68.5743 15.5008 67.2853 15.0398 65.6293 15.0398H63.555V25.488H65.6293Z" fill="#3DA7F3"/>
</svg>
