<svg width="16" height="16" viewBox="0 0 16 16" fill="none" xmlns="http://www.w3.org/2000/svg">
<g clip-path="url(#clip0_270_15646)">
<path d="M5.83333 14.9501C5.32222 14.9501 4.86389 14.8168 4.45833 14.5501C4.05278 14.2834 3.73889 13.9168 3.51667 13.4501C3.33889 13.6834 3.11389 13.864 2.84167 13.9918C2.56944 14.1196 2.28889 14.1834 2 14.1834C1.43333 14.1834 0.958333 13.989 0.575 13.6001C0.191667 13.2112 0 12.739 0 12.1834C0 11.7057 0.155556 11.2751 0.466667 10.8918C0.777778 10.5084 1.17222 10.289 1.65 10.2334C1.49444 10.0112 1.375 9.77511 1.29167 9.52511C1.20833 9.27511 1.16667 9.01123 1.16667 8.73345C1.16667 8.289 1.28056 7.87234 1.50833 7.48345C1.73611 7.09456 2.05556 6.77789 2.46667 6.53345C2.52222 6.73345 2.59722 6.94734 2.69167 7.17511C2.78611 7.40289 2.89444 7.60011 3.01667 7.76678C2.86111 7.889 2.73889 8.03623 2.65 8.20845C2.56111 8.38067 2.51667 8.56123 2.51667 8.75011C2.51667 9.37234 2.77222 9.75567 3.28333 9.90011C3.79444 10.0446 4.27778 10.1612 4.73333 10.2501L5.05 10.7834C4.92778 11.139 4.82222 11.4418 4.73333 11.6918C4.64444 11.9418 4.6 12.1668 4.6 12.3668C4.6 12.7001 4.71944 12.9918 4.95833 13.2418C5.19722 13.4918 5.48889 13.6168 5.83333 13.6168C6.25556 13.6168 6.60556 13.4279 6.88333 13.0501C7.16111 12.6723 7.38889 12.2279 7.56667 11.7168C7.74444 11.2057 7.88056 10.689 7.975 10.1668C8.06944 9.64456 8.14444 9.24456 8.2 8.96678L9.5 9.31678C9.4 9.81678 9.27778 10.389 9.13333 11.0334C8.98889 11.6779 8.78611 12.2918 8.525 12.8751C8.26389 13.4584 7.91945 13.9501 7.49167 14.3501C7.06389 14.7501 6.51111 14.9501 5.83333 14.9501ZM2 12.8501C2.18889 12.8501 2.34722 12.7862 2.475 12.6584C2.60278 12.5307 2.66667 12.3723 2.66667 12.1834C2.66667 11.9946 2.60278 11.8362 2.475 11.7084C2.34722 11.5807 2.18889 11.5168 2 11.5168C1.81111 11.5168 1.65278 11.5807 1.525 11.7084C1.39722 11.8362 1.33333 11.9946 1.33333 12.1834C1.33333 12.3723 1.39722 12.5307 1.525 12.6584C1.65278 12.7862 1.81111 12.8501 2 12.8501ZM6.73333 10.2168C6.22222 9.76123 5.75833 9.33623 5.34167 8.94178C4.925 8.54734 4.56667 8.164 4.26667 7.79178C3.96667 7.41956 3.73611 7.04734 3.575 6.67511C3.41389 6.30289 3.33333 5.91678 3.33333 5.51678C3.33333 4.79456 3.58056 4.18623 4.075 3.69178C4.56944 3.19734 5.17778 2.95011 5.9 2.95011C5.94444 2.95011 5.98333 2.95289 6.01667 2.95845C6.05 2.964 6.08889 2.96678 6.13333 2.96678C6.08889 2.85567 6.05556 2.74456 6.03333 2.63345C6.01111 2.52234 6 2.40567 6 2.28345C6 1.72789 6.19444 1.25567 6.58333 0.866781C6.97222 0.477892 7.44444 0.283447 8 0.283447C8.55556 0.283447 9.02778 0.477892 9.41667 0.866781C9.80556 1.25567 10 1.72789 10 2.28345C10 2.40567 9.98889 2.51956 9.96667 2.62511C9.94444 2.73067 9.91111 2.839 9.86667 2.95011H10.1C10.7667 2.95011 11.3333 3.164 11.8 3.59178C12.2667 4.01956 12.5444 4.55011 12.6333 5.18345C12.4333 5.15011 12.2083 5.13345 11.9583 5.13345C11.7083 5.13345 11.4778 5.14456 11.2667 5.16678C11.1889 4.91123 11.0472 4.70011 10.8417 4.53345C10.6361 4.36678 10.3889 4.28345 10.1 4.28345C9.71111 4.28345 9.40833 4.39734 9.19167 4.62511C8.975 4.85289 8.67778 5.18345 8.3 5.61678H7.68333C7.29445 5.16123 6.99167 4.82511 6.775 4.60845C6.55833 4.39178 6.26667 4.28345 5.9 4.28345C5.54444 4.28345 5.25 4.40011 5.01667 4.63345C4.78333 4.86678 4.66667 5.16123 4.66667 5.51678C4.66667 5.77234 4.73889 6.03623 4.88333 6.30845C5.02778 6.58067 5.23056 6.86956 5.49167 7.17511C5.75278 7.48067 6.06944 7.80567 6.44167 8.15011C6.81389 8.49456 7.22778 8.86678 7.68333 9.26678L6.73333 10.2168ZM8 2.95011C8.18889 2.95011 8.34722 2.88623 8.475 2.75845C8.60278 2.63067 8.66667 2.47234 8.66667 2.28345C8.66667 2.09456 8.60278 1.93623 8.475 1.80845C8.34722 1.68067 8.18889 1.61678 8 1.61678C7.81111 1.61678 7.65278 1.68067 7.525 1.80845C7.39722 1.93623 7.33333 2.09456 7.33333 2.28345C7.33333 2.47234 7.39722 2.63067 7.525 2.75845C7.65278 2.88623 7.81111 2.95011 8 2.95011ZM10.15 14.9501C9.90556 14.9501 9.66389 14.9168 9.425 14.8501C9.18611 14.7834 8.95556 14.6779 8.73333 14.5334C8.85556 14.3779 8.97778 14.1946 9.1 13.9834C9.22222 13.7723 9.33333 13.5779 9.43333 13.4001C9.55556 13.4779 9.67778 13.5334 9.8 13.5668C9.92222 13.6001 10.0444 13.6168 10.1667 13.6168C10.5222 13.6168 10.8194 13.4918 11.0583 13.2418C11.2972 12.9918 11.4167 12.6946 11.4167 12.3501C11.4167 12.139 11.3722 11.9112 11.2833 11.6668C11.1944 11.4223 11.0889 11.1223 10.9667 10.7668L11.2833 10.2334C11.75 10.1446 12.2361 10.0279 12.7417 9.88345C13.2472 9.739 13.5 9.35567 13.5 8.73345C13.5 8.289 13.3361 7.96678 13.0083 7.76678C12.6806 7.56678 12.3222 7.46678 11.9333 7.46678C11.4667 7.46678 10.9222 7.55567 10.3 7.73345C9.67778 7.91123 8.95 8.139 8.11667 8.41678L7.76667 7.11678C8.63333 6.839 9.40556 6.60567 10.0833 6.41678C10.7611 6.22789 11.3833 6.13345 11.95 6.13345C12.7167 6.13345 13.3889 6.36123 13.9667 6.81678C14.5444 7.27234 14.8333 7.91123 14.8333 8.73345C14.8333 9.01123 14.7917 9.27511 14.7083 9.52511C14.625 9.77511 14.5056 10.0112 14.35 10.2334C14.8278 10.289 15.2222 10.5084 15.5333 10.8918C15.8444 11.2751 16 11.7057 16 12.1834C16 12.739 15.8083 13.2112 15.425 13.6001C15.0417 13.989 14.5667 14.1834 14 14.1834C13.7111 14.1834 13.4306 14.1196 13.1583 13.9918C12.8861 13.864 12.6611 13.6834 12.4833 13.4501C12.2611 13.9168 11.9472 14.2834 11.5417 14.5501C11.1361 14.8168 10.6722 14.9501 10.15 14.9501ZM14.0167 12.8501C14.2056 12.8501 14.3611 12.7862 14.4833 12.6584C14.6056 12.5307 14.6667 12.3723 14.6667 12.1834C14.6667 11.9946 14.6028 11.8334 14.475 11.7001C14.3472 11.5668 14.1889 11.5001 14 11.5001C13.8111 11.5001 13.6528 11.564 13.525 11.6918C13.3972 11.8196 13.3333 11.9779 13.3333 12.1668C13.3333 12.3557 13.4 12.5168 13.5333 12.6501C13.6667 12.7834 13.8278 12.8501 14.0167 12.8501Z" fill="black"/>
</g>
<defs>
<clipPath id="clip0_270_15646">
<rect width="16" height="16" fill="white"/>
</clipPath>
</defs>
</svg>
