<svg width="16" height="16" viewBox="0 0 16 16" fill="none" xmlns="http://www.w3.org/2000/svg">
<path d="M3 14.0001C2.72222 14.0001 2.48611 13.9029 2.29167 13.7084C2.09722 13.514 2 13.2779 2 13.0001V11.7334L4.66667 9.36676V14.0001H3ZM5.33333 14.0001V11.3334H10.6667V14.0001H5.33333ZM11.3333 14.0001V8.53343L8.48333 6.0001L10.5 4.21676L13.6667 7.03343C13.7778 7.13343 13.8611 7.24732 13.9167 7.3751C13.9722 7.50288 14 7.63899 14 7.78343V13.0001C14 13.2779 13.9028 13.514 13.7083 13.7084C13.5139 13.9029 13.2778 14.0001 13 14.0001H11.3333ZM2 10.8334V7.78343C2 7.63899 2.02778 7.5001 2.08333 7.36676C2.13889 7.23343 2.22222 7.12232 2.33333 7.03343L7.33333 2.6001C7.42222 2.51121 7.525 2.44732 7.64167 2.40843C7.75833 2.36954 7.87778 2.3501 8 2.3501C8.12222 2.3501 8.24167 2.36954 8.35833 2.40843C8.475 2.44732 8.57778 2.51121 8.66667 2.6001L10 3.78343L2 10.8334Z" fill="black"/>
</svg>
