<svg width="16" height="16" viewBox="0 0 16 16" fill="none" xmlns="http://www.w3.org/2000/svg">
<path d="M2.66699 14V10.6667C2.66699 10.3 2.79755 9.98611 3.05866 9.725C3.31977 9.46389 3.63366 9.33333 4.00033 9.33333H12.0003C12.367 9.33333 12.6809 9.46389 12.942 9.725C13.2031 9.98611 13.3337 10.3 13.3337 10.6667V14H2.66699ZM6.00033 8.66667C5.0781 8.66667 4.29199 8.34167 3.64199 7.69167C2.99199 7.04167 2.66699 6.25556 2.66699 5.33333C2.66699 4.41111 2.99199 3.625 3.64199 2.975C4.29199 2.325 5.0781 2 6.00033 2H10.0003C10.9225 2 11.7087 2.325 12.3587 2.975C13.0087 3.625 13.3337 4.41111 13.3337 5.33333C13.3337 6.25556 13.0087 7.04167 12.3587 7.69167C11.7087 8.34167 10.9225 8.66667 10.0003 8.66667H6.00033ZM4.00033 12.6667H12.0003V10.6667H4.00033V12.6667ZM6.00033 7.33333H10.0003C10.5559 7.33333 11.0281 7.13889 11.417 6.75C11.8059 6.36111 12.0003 5.88889 12.0003 5.33333C12.0003 4.77778 11.8059 4.30556 11.417 3.91667C11.0281 3.52778 10.5559 3.33333 10.0003 3.33333H6.00033C5.44477 3.33333 4.97255 3.52778 4.58366 3.91667C4.19477 4.30556 4.00033 4.77778 4.00033 5.33333C4.00033 5.88889 4.19477 6.36111 4.58366 6.75C4.97255 7.13889 5.44477 7.33333 6.00033 7.33333ZM6.00033 6C6.18921 6 6.34755 5.93611 6.47533 5.80833C6.6031 5.68056 6.66699 5.52222 6.66699 5.33333C6.66699 5.14444 6.6031 4.98611 6.47533 4.85833C6.34755 4.73056 6.18921 4.66667 6.00033 4.66667C5.81144 4.66667 5.6531 4.73056 5.52533 4.85833C5.39755 4.98611 5.33366 5.14444 5.33366 5.33333C5.33366 5.52222 5.39755 5.68056 5.52533 5.80833C5.6531 5.93611 5.81144 6 6.00033 6ZM10.0003 6C10.1892 6 10.3475 5.93611 10.4753 5.80833C10.6031 5.68056 10.667 5.52222 10.667 5.33333C10.667 5.14444 10.6031 4.98611 10.4753 4.85833C10.3475 4.73056 10.1892 4.66667 10.0003 4.66667C9.81144 4.66667 9.6531 4.73056 9.52533 4.85833C9.39755 4.98611 9.33366 5.14444 9.33366 5.33333C9.33366 5.52222 9.39755 5.68056 9.52533 5.80833C9.6531 5.93611 9.81144 6 10.0003 6Z" fill="black"/>
</svg>
