<svg width="16" height="16" viewBox="0 0 16 16" fill="none" xmlns="http://www.w3.org/2000/svg">
<path d="M8.00033 8.00008C7.26699 8.00008 6.63921 7.73897 6.11699 7.21675C5.59477 6.69453 5.33366 6.06675 5.33366 5.33341C5.33366 4.60008 5.59477 3.9723 6.11699 3.45008C6.63921 2.92786 7.26699 2.66675 8.00033 2.66675C8.73366 2.66675 9.36144 2.92786 9.88366 3.45008C10.4059 3.9723 10.667 4.60008 10.667 5.33341C10.667 6.06675 10.4059 6.69453 9.88366 7.21675C9.36144 7.73897 8.73366 8.00008 8.00033 8.00008ZM2.66699 13.3334V11.4667C2.66699 11.089 2.76421 10.7417 2.95866 10.4251C3.1531 10.1084 3.41144 9.86675 3.73366 9.70008C4.42255 9.35564 5.12255 9.0973 5.83366 8.92508C6.54477 8.75286 7.26699 8.66675 8.00033 8.66675C8.73366 8.66675 9.45588 8.75286 10.167 8.92508C10.8781 9.0973 11.5781 9.35564 12.267 9.70008C12.5892 9.86675 12.8475 10.1084 13.042 10.4251C13.2364 10.7417 13.3337 11.089 13.3337 11.4667V13.3334H2.66699ZM4.00033 12.0001H12.0003V11.4667C12.0003 11.3445 11.9698 11.2334 11.9087 11.1334C11.8475 11.0334 11.767 10.9556 11.667 10.9001C11.067 10.6001 10.4614 10.3751 9.85033 10.2251C9.23921 10.0751 8.62255 10.0001 8.00033 10.0001C7.3781 10.0001 6.76144 10.0751 6.15033 10.2251C5.53921 10.3751 4.93366 10.6001 4.33366 10.9001C4.23366 10.9556 4.1531 11.0334 4.09199 11.1334C4.03088 11.2334 4.00033 11.3445 4.00033 11.4667V12.0001ZM8.00033 6.66675C8.36699 6.66675 8.68088 6.53619 8.94199 6.27508C9.2031 6.01397 9.33366 5.70008 9.33366 5.33341C9.33366 4.96675 9.2031 4.65286 8.94199 4.39175C8.68088 4.13064 8.36699 4.00008 8.00033 4.00008C7.63366 4.00008 7.31977 4.13064 7.05866 4.39175C6.79755 4.65286 6.66699 4.96675 6.66699 5.33341C6.66699 5.70008 6.79755 6.01397 7.05866 6.27508C7.31977 6.53619 7.63366 6.66675 8.00033 6.66675Z" fill="black"/>
</svg>
