<svg width="16" height="16" viewBox="0 0 16 16" fill="none" xmlns="http://www.w3.org/2000/svg">
<path d="M8 15.0001C7.2 14.2445 6.28333 13.6667 5.25 13.2667C4.21667 12.8667 3.13333 12.6667 2 12.6667V5.33341C3.12222 5.33341 4.2 5.53619 5.23333 5.94175C6.26667 6.3473 7.18889 6.93341 8 7.70008C8.81111 6.93341 9.73333 6.3473 10.7667 5.94175C11.8 5.53619 12.8778 5.33341 14 5.33341V12.6667C12.8556 12.6667 11.7694 12.8667 10.7417 13.2667C9.71389 13.6667 8.8 14.2445 8 15.0001ZM8 13.2667C8.7 12.7445 9.44444 12.3279 10.2333 12.0167C11.0222 11.7056 11.8333 11.5001 12.6667 11.4001V6.80008C11.8556 6.94453 11.0583 7.23619 10.275 7.67508C9.49167 8.11397 8.73333 8.70008 8 9.43341C7.26667 8.70008 6.50833 8.11397 5.725 7.67508C4.94167 7.23619 4.14444 6.94453 3.33333 6.80008V11.4001C4.16667 11.5001 4.97778 11.7056 5.76667 12.0167C6.55556 12.3279 7.3 12.7445 8 13.2667ZM8 6.00008C7.26667 6.00008 6.63889 5.73897 6.11667 5.21675C5.59444 4.69453 5.33333 4.06675 5.33333 3.33341C5.33333 2.60008 5.59444 1.9723 6.11667 1.45008C6.63889 0.927859 7.26667 0.666748 8 0.666748C8.73333 0.666748 9.36111 0.927859 9.88333 1.45008C10.4056 1.9723 10.6667 2.60008 10.6667 3.33341C10.6667 4.06675 10.4056 4.69453 9.88333 5.21675C9.36111 5.73897 8.73333 6.00008 8 6.00008ZM8 4.66675C8.36667 4.66675 8.68056 4.53619 8.94167 4.27508C9.20278 4.01397 9.33333 3.70008 9.33333 3.33341C9.33333 2.96675 9.20278 2.65286 8.94167 2.39175C8.68056 2.13064 8.36667 2.00008 8 2.00008C7.63333 2.00008 7.31944 2.13064 7.05833 2.39175C6.79722 2.65286 6.66667 2.96675 6.66667 3.33341C6.66667 3.70008 6.79722 4.01397 7.05833 4.27508C7.31944 4.53619 7.63333 4.66675 8 4.66675Z" fill="black"/>
</svg>
