<svg width="16" height="16" viewBox="0 0 16 16" fill="none" xmlns="http://www.w3.org/2000/svg">
<path d="M2.66634 14C2.29967 14 1.98579 13.8694 1.72467 13.6083C1.46356 13.3472 1.33301 13.0333 1.33301 12.6667V3.33333C1.33301 2.96667 1.46356 2.65278 1.72467 2.39167C1.98579 2.13056 2.29967 2 2.66634 2H13.333C13.6997 2 14.0136 2.13056 14.2747 2.39167C14.5358 2.65278 14.6663 2.96667 14.6663 3.33333V12.6667C14.6663 13.0333 14.5358 13.3472 14.2747 13.6083C14.0136 13.8694 13.6997 14 13.333 14H2.66634ZM2.66634 12.6667H13.333V3.33333H2.66634V12.6667ZM3.33301 11.3333H6.66634V10H3.33301V11.3333ZM9.69967 10L12.9997 6.7L12.0497 5.75L9.69967 8.11667L8.74967 7.16667L7.81634 8.11667L9.69967 10ZM3.33301 8.66667H6.66634V7.33333H3.33301V8.66667ZM3.33301 6H6.66634V4.66667H3.33301V6Z" fill="black"/>
</svg>
