<svg width="16" height="16" viewBox="0 0 16 16" fill="none" xmlns="http://www.w3.org/2000/svg">
<path d="M7.99967 5.99992C7.35523 5.99992 6.80523 5.77214 6.34967 5.31659C5.89412 4.86103 5.66634 4.31103 5.66634 3.66659C5.66634 3.02214 5.89412 2.47214 6.34967 2.01659C6.80523 1.56103 7.35523 1.33325 7.99967 1.33325C8.64412 1.33325 9.19412 1.56103 9.64967 2.01659C10.1052 2.47214 10.333 3.02214 10.333 3.66659C10.333 4.31103 10.1052 4.86103 9.64967 5.31659C9.19412 5.77214 8.64412 5.99992 7.99967 5.99992ZM7.99967 4.66658C8.27745 4.66658 8.51356 4.56936 8.70801 4.37492C8.90245 4.18047 8.99967 3.94436 8.99967 3.66659C8.99967 3.38881 8.90245 3.1527 8.70801 2.95825C8.51356 2.76381 8.27745 2.66659 7.99967 2.66659C7.7219 2.66659 7.48579 2.76381 7.29134 2.95825C7.0969 3.1527 6.99967 3.38881 6.99967 3.66659C6.99967 3.94436 7.0969 4.18047 7.29134 4.37492C7.48579 4.56936 7.7219 4.66658 7.99967 4.66658ZM7.99967 14.6666L3.99967 10.6666C3.77745 10.4444 3.61079 10.1944 3.49967 9.91658C3.38856 9.63881 3.33301 9.33325 3.33301 8.99992C3.33301 8.34436 3.55801 7.79158 4.00801 7.34159C4.45801 6.89159 5.01079 6.66658 5.66634 6.66658C5.98856 6.66658 6.28579 6.7277 6.55801 6.84992C6.83023 6.97214 7.07745 7.14436 7.29967 7.36658L7.99967 8.06659L8.69967 7.36658C8.9219 7.14436 9.16912 6.97214 9.44134 6.84992C9.71356 6.7277 10.0108 6.66658 10.333 6.66658C10.9886 6.66658 11.5413 6.89159 11.9913 7.34159C12.4413 7.79158 12.6663 8.34436 12.6663 8.99992C12.6663 9.33325 12.6108 9.63881 12.4997 9.91658C12.3886 10.1944 12.2219 10.4444 11.9997 10.6666L7.99967 14.6666ZM7.99967 12.7666L11.033 9.73325C11.133 9.63325 11.208 9.51936 11.258 9.39158C11.308 9.26381 11.333 9.13325 11.333 8.99992C11.333 8.73325 11.2386 8.49992 11.0497 8.29992C10.8608 8.09992 10.6219 7.99992 10.333 7.99992C10.1997 7.99992 10.0802 8.01936 9.97467 8.05825C9.86912 8.09714 9.76634 8.16658 9.66634 8.26658L7.99967 9.93325L6.33301 8.26658C6.26634 8.19992 6.18023 8.13881 6.07467 8.08325C5.96912 8.0277 5.83301 7.99992 5.66634 7.99992C5.37745 7.99992 5.13856 8.09992 4.94967 8.29992C4.76079 8.49992 4.66634 8.73325 4.66634 8.99992C4.66634 9.13325 4.69412 9.25825 4.74967 9.37492C4.80523 9.49158 4.87745 9.59992 4.96634 9.69992L7.99967 12.7666Z" fill="black"/>
</svg>
