<svg width="16" height="16" viewBox="0 0 16 16" fill="none" xmlns="http://www.w3.org/2000/svg">
<path d="M2.66699 12.6666V11.3333H4.00033V6.66658C4.00033 5.74436 4.2781 4.92492 4.83366 4.20825C5.38921 3.49159 6.11144 3.02214 7.00033 2.79992V2.33325C7.00033 2.05547 7.09755 1.81936 7.29199 1.62492C7.48644 1.43047 7.72255 1.33325 8.00033 1.33325C8.2781 1.33325 8.51421 1.43047 8.70866 1.62492C8.9031 1.81936 9.00033 2.05547 9.00033 2.33325V2.79992C9.88921 3.02214 10.6114 3.49159 11.167 4.20825C11.7225 4.92492 12.0003 5.74436 12.0003 6.66658V11.3333H13.3337V12.6666H2.66699ZM8.00033 14.6666C7.63366 14.6666 7.31977 14.536 7.05866 14.2749C6.79755 14.0138 6.66699 13.6999 6.66699 13.3333H9.33366C9.33366 13.6999 9.2031 14.0138 8.94199 14.2749C8.68088 14.536 8.36699 14.6666 8.00033 14.6666ZM5.33366 11.3333H10.667V6.66658C10.667 5.93325 10.4059 5.30547 9.88366 4.78325C9.36144 4.26103 8.73366 3.99992 8.00033 3.99992C7.26699 3.99992 6.63921 4.26103 6.11699 4.78325C5.59477 5.30547 5.33366 5.93325 5.33366 6.66658V11.3333Z" fill="black"/>
</svg>
