<svg width="16" height="16" viewBox="0 0 16 16" fill="none" xmlns="http://www.w3.org/2000/svg">
<g clip-path="url(#clip0_270_16442)">
<path d="M1.33333 14C0.966667 14 0.652778 13.8694 0.391667 13.6083C0.130556 13.3472 0 13.0333 0 12.6667V3.33333C0 2.96667 0.130556 2.65278 0.391667 2.39167C0.652778 2.13056 0.966667 2 1.33333 2H14.6667C15.0333 2 15.3472 2.13056 15.6083 2.39167C15.8694 2.65278 16 2.96667 16 3.33333V12.6667C16 13.0333 15.8694 13.3472 15.6083 13.6083C15.3472 13.8694 15.0333 14 14.6667 14H1.33333ZM10.6 12.6667H14.6667V3.33333H1.33333V12.6667H1.4C1.86667 11.8333 2.51111 11.1806 3.33333 10.7083C4.15556 10.2361 5.04444 10 6 10C6.95556 10 7.84444 10.2361 8.66667 10.7083C9.48889 11.1806 10.1333 11.8333 10.6 12.6667ZM6 9.33333C6.55556 9.33333 7.02778 9.13889 7.41667 8.75C7.80556 8.36111 8 7.88889 8 7.33333C8 6.77778 7.80556 6.30556 7.41667 5.91667C7.02778 5.52778 6.55556 5.33333 6 5.33333C5.44444 5.33333 4.97222 5.52778 4.58333 5.91667C4.19444 6.30556 4 6.77778 4 7.33333C4 7.88889 4.19444 8.36111 4.58333 8.75C4.97222 9.13889 5.44444 9.33333 6 9.33333ZM12.6667 12L14 10.6667L13 9.33333H11.9C11.8333 9.13333 11.7778 8.91945 11.7333 8.69167C11.6889 8.46389 11.6667 8.23333 11.6667 8C11.6667 7.76667 11.6889 7.54167 11.7333 7.325C11.7778 7.10833 11.8333 6.88889 11.9 6.66667H13L14 5.33333L12.6667 4C12.0667 4.46667 11.5833 5.05833 11.2167 5.775C10.85 6.49167 10.6667 7.23333 10.6667 8C10.6667 8.76667 10.85 9.50833 11.2167 10.225C11.5833 10.9417 12.0667 11.5333 12.6667 12ZM3.03333 12.6667H8.96667C8.58889 12.2444 8.14167 11.9167 7.625 11.6833C7.10833 11.45 6.56667 11.3333 6 11.3333C5.43333 11.3333 4.89444 11.45 4.38333 11.6833C3.87222 11.9167 3.42222 12.2444 3.03333 12.6667ZM6 8C5.81111 8 5.65278 7.93611 5.525 7.80833C5.39722 7.68056 5.33333 7.52222 5.33333 7.33333C5.33333 7.14444 5.39722 6.98611 5.525 6.85833C5.65278 6.73056 5.81111 6.66667 6 6.66667C6.18889 6.66667 6.34722 6.73056 6.475 6.85833C6.60278 6.98611 6.66667 7.14444 6.66667 7.33333C6.66667 7.52222 6.60278 7.68056 6.475 7.80833C6.34722 7.93611 6.18889 8 6 8Z" fill="black"/>
</g>
<defs>
<clipPath id="clip0_270_16442">
<rect width="16" height="16" fill="white"/>
</clipPath>
</defs>
</svg>
