<svg width="16" height="16" viewBox="0 0 16 16" fill="none" xmlns="http://www.w3.org/2000/svg">
<path d="M3.99967 9.33325H9.33301V7.99992H3.99967V9.33325ZM3.99967 7.33325H11.9997V5.99992H3.99967V7.33325ZM3.99967 5.33325H11.9997V3.99992H3.99967V5.33325ZM1.33301 14.6666V2.66659C1.33301 2.29992 1.46356 1.98603 1.72467 1.72492C1.98579 1.46381 2.29967 1.33325 2.66634 1.33325H13.333C13.6997 1.33325 14.0136 1.46381 14.2747 1.72492C14.5358 1.98603 14.6663 2.29992 14.6663 2.66659V10.6666C14.6663 11.0333 14.5358 11.3471 14.2747 11.6083C14.0136 11.8694 13.6997 11.9999 13.333 11.9999H3.99967L1.33301 14.6666ZM3.43301 10.6666H13.333V2.66659H2.66634V11.4166L3.43301 10.6666Z" fill="black"/>
</svg>
